<svg xmlns="http://www.w3.org/2000/svg" width="24" height="24" viewBox="0 0 24 24">
    <g fill="none" fill-rule="evenodd" opacity=".72">
        <circle cx="12" cy="12" r="11.5" stroke="#1F2229"/>
        <path fill="#1F2229" d="M12.533 4a2.072 2.072 0 0 1 2.053 2.103c-.008 1.153-.942 2.087-2.061 2.078a2.102 2.102 0 0 1-2.087-2.111A2.079 2.079 0 0 1 12.533 4zm2.953 14.008c-.042.177-.16.362-.286.497-.757.765-1.657 1.22-2.742 1.236a9.094 9.094 0 0 1-1.515-.084c-.833-.118-1.884-1.144-1.733-2.246.101-.749.219-1.498.345-2.246.219-1.296.454-2.6.681-3.896.017-.084.017-.168.017-.252 0-.547-.168-.732-.706-.808-.228-.034-.472-.05-.682-.126-.27-.093-.387-.303-.362-.522.026-.227.169-.37.463-.429.152-.033.311-.033.471-.033H13.375c.488 0 .774.227.79.715.009.403-.058.807-.134 1.211-.26 1.48-.539 2.962-.808 4.45-.092.489-.193.985-.244 1.473a2.05 2.05 0 0 0 .068.715c.075.312.31.48.622.446.26-.033.522-.126.774-.219.202-.075.379-.218.59-.294.277-.11.53.1.453.412z"/>
    </g>
</svg>
