<svg xmlns="http://www.w3.org/2000/svg" width="24" height="24" viewBox="0 0 24 24">
    <g fill="none" fill-rule="evenodd" opacity=".72">
        <circle cx="12" cy="12" r="11.5" stroke="#1F2229"/>
        <path fill="#1F2229" d="M8.293 14.708a3 3 0 1 1 0-5.415l2-2a3 3 0 1 1 1.414 1.414l-2 2c.188.391.293.83.293 1.293 0 .463-.105.902-.292 1.293l1.999 2a3 3 0 1 1-1.414 1.414l-2-2zM13 7a1 1 0 1 0 0-2 1 1 0 0 0 0 2zm0 12a1 1 0 1 0 0-2 1 1 0 0 0 0 2zm-6-6a1 1 0 1 0 0-2 1 1 0 0 0 0 2z"/>
    </g>
</svg>
